<svg width="39" height="35" viewBox="0 0 39 35" fill="none" xmlns="http://www.w3.org/2000/svg">
<path d="M22.6066 30.0049H1.4955C0.912303 30.0049 0.439941 30.4773 0.439941 31.0604V33.1716C0.439941 33.7548 0.912303 34.2271 1.4955 34.2271H22.6066C23.1898 34.2271 23.6622 33.7548 23.6622 33.1716V31.0604C23.6622 30.4773 23.1898 30.0049 22.6066 30.0049ZM36.3288 8.89378V5.72712C36.3288 5.14392 35.8565 4.67156 35.2733 4.67156C34.6901 4.67156 34.2177 5.14392 34.2177 5.72712V8.89378H32.1066V5.72712C32.1066 5.14392 31.6342 4.67156 31.0511 4.67156C30.4679 4.67156 29.9955 5.14392 29.9955 5.72712V8.89378H28.9399C28.3567 8.89378 27.8844 9.36615 27.8844 9.94934V12.0605C27.8844 14.4196 29.4427 16.3942 31.5788 17.0697V24.8868C31.5788 25.8071 30.9521 26.6627 30.0443 26.8125C28.8885 27.0032 27.8844 26.1119 27.8844 24.991V23.1438C27.8844 19.9375 25.2851 17.3382 22.0788 17.3382H21.5511V4.67156C21.5511 2.33944 19.6609 0.449341 17.3288 0.449341H6.77327C4.44116 0.449341 2.55105 2.33944 2.55105 4.67156V27.8938H21.5511V20.5049H22.0788C23.5362 20.5049 24.7177 21.6865 24.7177 23.1438V24.7674C24.7177 27.3845 26.6256 29.7258 29.2309 29.9798C32.2194 30.2721 34.7455 27.9208 34.7455 24.991V17.0697C36.8817 16.3942 38.4399 14.4196 38.4399 12.0605V9.94934C38.4399 9.36615 37.9676 8.89378 37.3844 8.89378H36.3288ZM17.5987 12.0446L11.4171 21.2148C11.2719 21.4344 11.0074 21.5605 10.7316 21.5605C10.2256 21.5605 9.84296 21.1461 9.96171 20.7081L11.4804 15.2271H7.56494C7.08664 15.2271 6.7172 14.8583 6.78053 14.4427L7.83609 7.38368C7.88821 7.03997 8.22334 6.78267 8.6205 6.78267H13.1066C13.6265 6.78267 14.0052 7.21413 13.8719 7.65417L13.1066 11.0049H16.9132C17.5228 11.0049 17.9034 11.5841 17.5987 12.0446Z" fill="black"/>
</svg>
