<svg width="39" height="31" viewBox="0 0 39 31" fill="none" xmlns="http://www.w3.org/2000/svg">
<path d="M34.8585 0.949341H3.19181C1.44355 0.949341 0.0251465 2.36774 0.0251465 4.11601V5.17156H38.0251V4.11601C38.0251 2.36774 36.6067 0.949341 34.8585 0.949341ZM0.0251465 27.3382C0.0251465 29.0865 1.44355 30.5049 3.19181 30.5049H34.8585C36.6067 30.5049 38.0251 29.0865 38.0251 27.3382V7.28267H0.0251465V27.3382ZM23.2474 12.0327C23.2474 11.7424 23.4849 11.5049 23.7751 11.5049H33.2751C33.5654 11.5049 33.8029 11.7424 33.8029 12.0327V13.0882C33.8029 13.3785 33.5654 13.616 33.2751 13.616H23.7751C23.4849 13.616 23.2474 13.3785 23.2474 13.0882V12.0327ZM23.2474 16.2549C23.2474 15.9646 23.4849 15.7271 23.7751 15.7271H33.2751C33.5654 15.7271 33.8029 15.9646 33.8029 16.2549V17.3105C33.8029 17.6007 33.5654 17.8382 33.2751 17.8382H23.7751C23.4849 17.8382 23.2474 17.6007 23.2474 17.3105V16.2549ZM23.2474 20.4771C23.2474 20.1868 23.4849 19.9493 23.7751 19.9493H33.2751C33.5654 19.9493 33.8029 20.1868 33.8029 20.4771V21.5327C33.8029 21.823 33.5654 22.0605 33.2751 22.0605H23.7751C23.4849 22.0605 23.2474 21.823 23.2474 21.5327V20.4771ZM11.6363 11.5049C13.9651 11.5049 15.8585 13.3983 15.8585 15.7271C15.8585 18.0559 13.9651 19.9493 11.6363 19.9493C9.30744 19.9493 7.41404 18.0559 7.41404 15.7271C7.41404 13.3983 9.30744 11.5049 11.6363 11.5049ZM4.45188 24.9764C5.00605 23.2809 6.59598 22.0605 8.46959 22.0605H9.01056C9.82202 22.3969 10.706 22.5882 11.6363 22.5882C12.5665 22.5882 13.4571 22.3969 14.262 22.0605H14.8029C16.6765 22.0605 18.2665 23.2809 18.8206 24.9764C19.0317 25.6295 18.4776 26.2827 17.7915 26.2827H5.48105C4.79494 26.2827 4.24077 25.623 4.45188 24.9764V24.9764Z" fill="black"/>
</svg>
