<svg width="41" height="31" viewBox="0 0 41 31" fill="none" xmlns="http://www.w3.org/2000/svg">
<path d="M7.97246 0C3.56625 0 0 3.46674 0 7.75V23.25C0 27.5333 3.56625 31 7.97246 31C12.3787 31 15.9449 27.5333 15.9449 23.25V7.75C15.9449 3.46674 12.3787 0 7.97246 0ZM11.3892 15.5H4.55569V7.75C4.55569 5.91629 6.08612 4.42857 7.97246 4.42857C9.8588 4.42857 11.3892 5.91629 11.3892 7.75V15.5ZM21.3335 13.4449C21.0843 13.2027 20.6643 13.2304 20.4579 13.5002C17.2333 17.825 17.5821 23.8866 21.5897 27.7824C25.5973 31.6781 31.8329 32.0172 36.2818 28.8826C36.5665 28.6819 36.5879 28.2737 36.3388 28.0315L21.3335 13.4449ZM37.6912 12.1301C33.6837 8.23438 27.448 7.89531 22.9991 11.0299C22.7144 11.2306 22.693 11.6388 22.9422 11.881L37.9475 26.4676C38.1966 26.7098 38.6166 26.6821 38.823 26.4123C42.0476 22.0806 41.7059 16.0259 37.6912 12.1301Z" fill="black"/>
</svg>
