<svg width="39" height="39" viewBox="0 0 39 39" fill="none" xmlns="http://www.w3.org/2000/svg">
<path d="M19.7388 0.428223C9.2428 0.428223 0.73877 8.93226 0.73877 19.4282C0.73877 29.9242 9.2428 38.4282 19.7388 38.4282C30.2347 38.4282 38.7388 29.9242 38.7388 19.4282C38.7388 8.93226 30.2347 0.428223 19.7388 0.428223ZM30.771 21.5734C30.771 22.079 30.3573 22.4927 29.8517 22.4927H22.8033V29.5411C22.8033 30.0468 22.3896 30.4605 21.8839 30.4605H17.5936C17.088 30.4605 16.6743 30.0468 16.6743 29.5411V22.4927H9.62587C9.12022 22.4927 8.70651 22.079 8.70651 21.5734V17.2831C8.70651 16.7774 9.12022 16.3637 9.62587 16.3637H16.6743V9.31532C16.6743 8.80967 17.088 8.39596 17.5936 8.39596H21.8839C22.3896 8.39596 22.8033 8.80967 22.8033 9.31532V16.3637H29.8517C30.3573 16.3637 30.771 16.7774 30.771 17.2831V21.5734Z" fill="black"/>
</svg>
