<svg width="24" height="39" viewBox="0 0 24 39" fill="none" xmlns="http://www.w3.org/2000/svg">
<path d="M20.3679 0.902344H3.74292C1.77612 0.902344 0.18042 2.49805 0.18042 4.46484V35.3398C0.18042 37.3066 1.77612 38.9023 3.74292 38.9023H20.3679C22.3347 38.9023 23.9304 37.3066 23.9304 35.3398V4.46484C23.9304 2.49805 22.3347 0.902344 20.3679 0.902344ZM12.0554 36.5273C10.7417 36.5273 9.68042 35.466 9.68042 34.1523C9.68042 32.8387 10.7417 31.7773 12.0554 31.7773C13.3691 31.7773 14.4304 32.8387 14.4304 34.1523C14.4304 35.466 13.3691 36.5273 12.0554 36.5273ZM20.3679 28.5117C20.3679 29.0016 19.9671 29.4023 19.4773 29.4023H4.63354C4.1437 29.4023 3.74292 29.0016 3.74292 28.5117V5.35547C3.74292 4.86563 4.1437 4.46484 4.63354 4.46484H19.4773C19.9671 4.46484 20.3679 4.86563 20.3679 5.35547V28.5117Z" fill="black"/>
</svg>
