<svg width="39" height="35" viewBox="0 0 39 35" fill="none" xmlns="http://www.w3.org/2000/svg">
<path d="M35.0138 0.838257H3.34709C1.59882 0.838257 0.18042 2.25666 0.18042 4.00492V25.116C0.18042 26.8643 1.59882 28.2827 3.34709 28.2827H16.0138L14.9582 31.4494H10.2082C9.33077 31.4494 8.62486 32.1553 8.62486 33.0327C8.62486 33.9101 9.33077 34.616 10.2082 34.616H28.1526C29.0301 34.616 29.736 33.9101 29.736 33.0327C29.736 32.1553 29.0301 31.4494 28.1526 31.4494H23.4026L22.3471 28.2827H35.0138C36.762 28.2827 38.1804 26.8643 38.1804 25.116V4.00492C38.1804 2.25666 36.762 0.838257 35.0138 0.838257ZM33.9582 24.0605H4.40264V5.06048H33.9582V24.0605Z" fill="black"/>
</svg>
