<svg width="31" height="31" viewBox="0 0 31 31" fill="none" xmlns="http://www.w3.org/2000/svg">
<path d="M31 15.4707C31.0158 24.0107 24.0512 30.994 15.5112 31C11.8228 31.0026 8.43481 29.7169 5.77237 27.5681C5.08006 27.0093 5.02831 25.9717 5.65743 25.3426L6.36162 24.6384C6.89968 24.1004 7.75868 24.0415 8.35481 24.5144C10.3164 26.071 12.7988 27.0001 15.5 27.0001C21.8565 27.0001 27 21.8556 27 15.5C27 9.14345 21.8555 4.00001 15.5 4.00001C12.4491 4.00001 9.67818 5.18557 7.62074 7.12076L10.7929 10.2929C11.4229 10.9229 10.9767 12 10.0858 12H0.999999C0.447687 12 0 11.5523 0 11V1.91419C0 1.02331 1.07712 0.577126 1.70712 1.20706L4.79287 4.29282C7.57556 1.6335 11.347 0 15.5 0C24.0506 0 30.9842 6.92376 31 15.4707ZM19.693 20.3947L20.3069 19.6053C20.8155 18.9514 20.6977 18.009 20.0438 17.5004L17.5 15.5218V9.00002C17.5 8.17158 16.8284 7.50001 16 7.50001H15C14.1716 7.50001 13.5 8.17158 13.5 9.00002V17.4782L17.588 20.6579C18.242 21.1664 19.1844 21.0487 19.693 20.3947V20.3947Z" fill="white"/>
</svg>
