<svg width="34" height="39" viewBox="0 0 34 39" fill="none" xmlns="http://www.w3.org/2000/svg">
<path d="M17.2661 19.5848C22.5134 19.5848 26.7661 15.3321 26.7661 10.0848C26.7661 4.83757 22.5134 0.584839 17.2661 0.584839C12.0188 0.584839 7.76611 4.83757 7.76611 10.0848C7.76611 15.3321 12.0188 19.5848 17.2661 19.5848ZM23.9161 21.9598H22.6767C21.029 22.7169 19.1958 23.1473 17.2661 23.1473C15.3364 23.1473 13.5106 22.7169 11.8556 21.9598H10.6161C5.10908 21.9598 0.641113 26.4278 0.641113 31.9348V35.0223C0.641113 36.9891 2.23682 38.5848 4.20361 38.5848H30.3286C32.2954 38.5848 33.8911 36.9891 33.8911 35.0223V31.9348C33.8911 26.4278 29.4231 21.9598 23.9161 21.9598Z" fill="black"/>
</svg>
