<svg width="39" height="39" viewBox="0 0 39 39" fill="none" xmlns="http://www.w3.org/2000/svg">
<path d="M38.7428 19.4263C38.7428 30.0073 30.1653 38.5848 19.5843 38.5848C9.00332 38.5848 0.425781 30.0073 0.425781 19.4263C0.425781 8.8453 9.00332 0.267761 19.5843 0.267761C30.1653 0.267761 38.7428 8.8453 38.7428 19.4263ZM17.3683 29.5706L31.5827 15.3562C32.0653 14.8735 32.0653 14.0909 31.5827 13.6082L29.8347 11.8602C29.352 11.3775 28.5694 11.3775 28.0866 11.8602L16.4942 23.4525L11.082 18.0403C10.5993 17.5576 9.81671 17.5576 9.33396 18.0403L7.58597 19.7883C7.1033 20.271 7.1033 21.0536 7.58597 21.5363L15.6202 29.5705C16.1029 30.0533 16.8855 30.0533 17.3683 29.5706V29.5706Z" fill="black"/>
</svg>
